<svg width="24" height="24" viewBox="0 0 24 24" fill="none" xmlns="http://www.w3.org/2000/svg">
<path fill-rule="evenodd" clip-rule="evenodd" d="M7.32812 21.333C7.32812 20.2284 8.22356 19.333 9.32812 19.333C10.4327 19.333 11.3281 20.2284 11.3281 21.333C11.3281 22.4376 10.4327 23.333 9.32812 23.333C8.22356 23.333 7.32812 22.4376 7.32812 21.333Z" fill="#474747"/>
<path fill-rule="evenodd" clip-rule="evenodd" d="M17.3281 21.333C17.3281 20.2284 18.2236 19.333 19.3281 19.333C20.4327 19.333 21.3281 20.2284 21.3281 21.333C21.3281 22.4376 20.4327 23.333 19.3281 23.333C18.2236 23.333 17.3281 22.4376 17.3281 21.333Z" fill="#474747"/>
<path fill-rule="evenodd" clip-rule="evenodd" d="M0.671875 2.27416C0.671875 1.75438 1.09472 1.33301 1.61632 1.33301H5.3941C5.84424 1.33301 6.23183 1.6496 6.32017 2.08946L7.11339 6.03879H22.3941C22.6756 6.03879 22.9424 6.1639 23.1218 6.38001C23.3012 6.59613 23.3745 6.88073 23.3218 7.15625L21.8094 15.0596C21.6798 15.7096 21.325 16.2934 20.807 16.7089C20.2916 17.1224 19.6473 17.343 18.9859 17.3327H9.82226C9.16089 17.343 8.51662 17.1224 8.00121 16.7089C7.48344 16.2936 7.1287 15.71 6.99902 15.0604C6.99896 15.0601 6.99907 15.0607 6.99902 15.0604L5.42129 7.20507C5.41489 7.17909 5.40957 7.15268 5.40538 7.1259L4.61995 3.21532H1.61632C1.09472 3.21532 0.671875 2.79395 0.671875 2.27416ZM7.49145 7.9211L8.85155 14.6929C8.89474 14.9095 9.01301 15.1042 9.18567 15.2427C9.35833 15.3812 9.57438 15.4548 9.796 15.4505L9.81409 15.4504H18.9941L19.0122 15.4505C19.2338 15.4548 19.4499 15.3812 19.6225 15.2427C19.7944 15.1048 19.9123 14.9114 19.956 14.6959L21.2525 7.9211H7.49145Z" fill="#474747"/>
</svg>
