<svg width="86" height="78" viewBox="0 0 86 78" fill="none" xmlns="http://www.w3.org/2000/svg">
<path d="M74.4683 45.0919L74.6288 44.4517L83.9373 51.7341L83.7768 52.3743L74.4683 45.0919Z" fill="#474747"/>
<path d="M69.0799 59.04L69.9953 57.762L73.5396 58.0276L72.1476 54.7573L73.063 53.4793L75.0376 58.1412L79.801 58.4977L78.8925 59.7659L75.6272 59.523L76.908 62.5364L75.9926 63.8144L74.1222 59.4191L69.0799 59.04Z" fill="#474747"/>
<path d="M65.0863 62.3799L68.7344 66.7596L68.129 59.8455L68.9589 59.1542L74.3349 65.6085L73.2746 66.4917L69.6265 62.112L70.2319 69.0262L69.402 69.7174L64.0259 63.2631L65.0863 62.3799Z" fill="#474747"/>
<path d="M62.0621 73.5318L61.4941 72.3403L63.628 71.323L60.5814 64.9321L61.8271 64.3382L64.8737 70.7292L67.0185 69.7068L67.5865 70.8983L62.0621 73.5318Z" fill="#474747"/>
<path d="M48.6474 75.756L48.2262 67.3665L49.6044 67.2973L49.9594 74.3684L53.3751 74.1969L53.0201 67.1259L54.3984 67.0567L54.8196 75.4461L48.6474 75.756Z" fill="#474747"/>
<path d="M42.4235 74.8644C41.6485 74.7012 41.0571 74.3069 40.6492 73.6814C40.2336 73.0543 40.1065 72.3571 40.2681 71.5899C40.428 70.8306 40.8254 70.2439 41.4604 69.8299C42.0859 69.422 42.7861 69.2997 43.5611 69.4629L45.2403 69.8165L45.8338 66.9984L47.1842 67.2828L45.4531 75.5024L42.4235 74.8644ZM43.294 70.7311C42.8948 70.647 42.538 70.7108 42.2236 70.9226C41.9075 71.1422 41.7058 71.4594 41.6184 71.8743C41.5311 72.2892 41.5885 72.657 41.7908 72.9775C41.9914 73.3059 42.2914 73.5122 42.6906 73.5962L44.3698 73.9499L44.9732 71.0847L43.294 70.7311Z" fill="#474747"/>
<path d="M34.325 63.7538C35.46 63.403 36.5652 63.5114 37.6406 64.079C38.716 64.6466 39.4326 65.4997 39.7905 66.6384C40.1376 67.7804 40.0273 68.8891 39.4598 69.9646C38.8922 71.04 38.0409 71.7531 36.906 72.1039C35.7602 72.458 34.6496 72.3513 33.5742 71.7838C32.4988 71.2162 31.7875 70.3614 31.4405 69.2193C31.0826 68.0806 31.1874 66.9736 31.755 65.8982C32.3226 64.8228 33.1792 64.108 34.325 63.7538ZM38.494 67.0125C38.2497 66.2413 37.7561 65.6597 37.0133 65.2676C36.2704 64.8755 35.5152 64.7981 34.7478 65.0353C33.9695 65.2759 33.3787 65.7782 32.9754 66.5423C32.5722 67.3064 32.4927 68.0741 32.737 68.8452C32.9704 69.6198 33.4586 70.2031 34.2015 70.5951C34.9444 70.9872 35.705 71.063 36.4832 70.8224C37.2507 70.5852 37.836 70.0845 38.2393 69.3204C38.6426 68.5563 38.7275 67.787 38.494 67.0125Z" fill="#474747"/>
<path d="M28.5154 58.6727L27.8744 58.0409L29.9297 55.9555L30.9126 56.9242L29.7839 58.0694L33.4162 61.6494L34.545 60.5041L35.5278 61.4728L33.4725 63.5582L32.917 63.0107C32.1202 63.124 31.2697 63.6393 30.3656 64.5566L27.4258 67.5394L23.5456 63.7152L28.5154 58.6727ZM31.8401 61.9494L29.4983 59.6413L25.4382 63.7609L27.3527 65.6477L29.3996 63.5708C30.2756 62.682 31.0891 62.1415 31.8401 61.9494Z" fill="#474747"/>
<path d="M25.9841 52.0913L24.8114 53.4452L26.5961 56.544L28.3558 56.2091L29.1044 57.509L20.3041 59.06L19.4776 57.625L25.2415 50.8018L25.9841 52.0913ZM25.2454 56.7957L23.9159 54.4872L21.2947 57.534L25.2454 56.7957Z" fill="#474747"/>
<path d="M23.1805 41.8403L23.5283 43.3487L20.3428 47.0512L24.1781 46.1668L24.4882 47.5115L20.6528 48.3959L25.138 50.3295L25.4885 51.8496L20.5959 49.7513L17.2763 53.6201L16.9258 52.1L20.0214 48.5415L16.303 49.3989L15.9929 48.0542L19.7113 47.1968L15.37 45.3531L15.0222 43.8447L19.6981 45.8575L23.1805 41.8403Z" fill="#474747"/>
<path d="M24.9456 38.6126L24.8194 39.2604L15.1358 32.4849L15.262 31.837L24.9456 38.6126Z" fill="#474747"/>
<path d="M29.5336 24.4405L28.6897 25.7668L25.1362 25.6962L26.7056 28.8851L25.8617 30.2114L23.6342 25.665L18.8584 25.5705L19.6958 24.2544L22.9696 24.3177L21.5253 21.3791L22.3692 20.0528L24.478 24.3387L29.5336 24.4405Z" fill="#474747"/>
<path d="M33.308 20.9008L29.4266 16.7266L30.408 23.5974L29.6171 24.3328L23.8971 18.1813L24.9077 17.2416L28.7891 21.4158L27.8077 14.545L28.5986 13.8096L34.3186 19.9611L33.308 20.9008Z" fill="#474747"/>
<path d="M35.6507 9.61217L36.284 10.7703L34.2098 11.9045L37.6067 18.1164L36.3959 18.7785L32.999 12.5666L30.9144 13.7066L30.281 12.5484L35.6507 9.61217Z" fill="#474747"/>
<path d="M48.8322 6.602L49.7371 14.9531L48.3651 15.1018L47.6024 8.06298L44.2023 8.43142L44.9651 15.4702L43.5931 15.6189L42.6881 7.26777L48.8322 6.602Z" fill="#474747"/>
<path d="M55.1054 7.1084C55.8885 7.2269 56.5016 7.58668 56.9446 8.18774C57.3956 8.78999 57.5624 9.47871 57.4451 10.2539C57.329 11.0211 56.9659 11.6297 56.3557 12.0794C55.7547 12.5225 55.0626 12.6848 54.2795 12.5663L52.5828 12.3095L52.1519 15.1571L50.7874 14.9506L52.0443 6.64517L55.1054 7.1084ZM54.4734 11.2849C54.8768 11.3459 55.2294 11.2617 55.5311 11.0323C55.834 10.7949 56.0172 10.4666 56.0807 10.0474C56.1441 9.62818 56.0657 9.26434 55.8453 8.9559C55.6262 8.63956 55.3149 8.45086 54.9115 8.38981L53.2148 8.13306L52.7767 11.0281L54.4734 11.2849Z" fill="#474747"/>
<path d="M63.952 17.7606C62.8383 18.174 61.7288 18.1273 60.6235 17.6204C59.5181 17.1135 58.7551 16.3015 58.3345 15.1845C57.9244 14.0636 57.9728 12.9504 58.4797 11.8451C58.9866 10.7398 59.7969 9.98042 60.9106 9.56703C62.0349 9.1497 63.1497 9.19447 64.255 9.70136C65.3603 10.2082 66.118 11.0222 66.5281 12.1431C66.9487 13.2601 66.9056 14.3713 66.3987 15.4766C65.8918 16.582 65.0763 17.3433 63.952 17.7606ZM59.6082 14.7389C59.895 15.4953 60.4201 16.0486 61.1837 16.3987C61.9472 16.7489 62.7055 16.7842 63.4586 16.5046C64.2223 16.2212 64.7842 15.6867 65.1443 14.9014C65.5045 14.116 65.5412 13.3452 65.2544 12.5888C64.9782 11.8284 64.4583 11.2732 63.6947 10.923C62.9312 10.5729 62.1676 10.5395 61.4039 10.823C60.6509 11.1025 60.0942 11.635 59.7341 12.4203C59.3739 13.2057 59.332 13.9785 59.6082 14.7389Z" fill="#474747"/>
<path d="M70.0101 22.4779L70.6845 23.0738L68.7459 25.2681L67.7117 24.3544L68.7764 23.1493L64.9543 19.7726L63.8897 20.9777L62.8555 20.064L64.7941 17.8697L65.3787 18.3862C66.1681 18.2296 66.9892 17.6687 67.842 16.7035L70.6149 13.5649L74.6977 17.1721L70.0101 22.4779ZM66.5118 19.3872L68.9759 21.5642L72.8054 17.2296L70.791 15.4499L68.8603 17.6352C68.034 18.5705 67.2512 19.1545 66.5118 19.3872Z" fill="#474747"/>
<path d="M72.96 28.9531L74.0564 27.5366L72.1036 24.5408L70.3651 24.9722L69.546 23.7155L78.2474 21.682L79.1517 23.0693L73.7726 30.1997L72.96 28.9531ZM73.4384 24.2151L74.8931 26.4468L77.3424 23.2603L73.4384 24.2151Z" fill="#474747"/>
<path d="M76.3244 38.98L75.8912 37.4938L78.8608 33.616L75.0821 34.7173L74.6959 33.3924L78.4747 32.2912L73.8868 30.616L73.4503 29.1183L78.4544 30.9347L81.5483 26.8832L81.9848 28.3808L79.0968 32.1098L82.7604 31.0421L83.1465 32.367L79.483 33.4347L83.9221 35.0283L84.3553 36.5145L79.5724 34.7711L76.3244 38.98Z" fill="#474747"/>
</svg>
