<svg width="24" height="22" viewBox="0 0 24 22" fill="none" xmlns="http://www.w3.org/2000/svg">
<path fill-rule="evenodd" clip-rule="evenodd" d="M14.5795 0.855037C15.4061 0.510395 16.292 0.333008 17.1868 0.333008C18.0815 0.333008 18.9675 0.510396 19.7941 0.855037C20.6205 1.19962 21.3714 1.70463 22.0039 2.34125C22.6365 2.97767 23.1388 3.7336 23.4812 4.56521C23.8237 5.39697 24 6.28848 24 7.18882C24 8.08916 23.8237 8.98067 23.4812 9.81244C23.1387 10.6441 22.6368 11.3998 22.0041 12.0362C22.004 12.0363 22.0041 12.0362 22.0041 12.0362L12.7407 21.3575C12.3315 21.7693 11.668 21.7693 11.2587 21.3575L1.99538 12.0362C0.71776 10.7506 0 9.00695 0 7.18882C0 5.3707 0.71776 3.62704 1.99538 2.34143C3.273 1.05582 5.00583 0.333572 6.81265 0.333572C8.61948 0.333572 10.3523 1.05582 11.6299 2.34143L11.9997 2.71353L12.3693 2.3416C12.3694 2.34154 12.3693 2.34166 12.3693 2.3416C13.0018 1.7049 13.753 1.19965 14.5795 0.855037ZM17.1868 2.4419C16.5674 2.4419 15.954 2.5647 15.3817 2.8033C14.8095 3.0419 14.2895 3.39161 13.8516 3.83246L12.7407 4.95035C12.3315 5.36213 11.668 5.36213 11.2587 4.95035L10.148 3.83264C9.2634 2.94252 8.06364 2.44246 6.81265 2.44246C5.56166 2.44246 4.36191 2.94252 3.47732 3.83264C2.59274 4.72275 2.09578 5.93001 2.09578 7.18882C2.09578 8.44763 2.59274 9.65489 3.47732 10.545L11.9997 19.1207L20.5221 10.545C20.9602 10.1044 21.3079 9.581 21.5451 9.00517C21.7822 8.42933 21.9042 7.81213 21.9042 7.18882C21.9042 6.56551 21.7822 5.94831 21.5451 5.37247C21.3079 4.79664 20.9604 4.27346 20.5223 3.83281C20.0844 3.39196 19.5641 3.0419 18.9918 2.8033C18.4196 2.5647 17.8062 2.4419 17.1868 2.4419Z" fill="#474747"/>
<path d="M22.0039 2.34125C21.3714 1.70463 20.6205 1.19961 19.7941 0.855037C18.9675 0.510396 18.0815 0.333008 17.1868 0.333008C16.292 0.333008 15.4061 0.510395 14.5795 0.855037C13.753 1.19965 13.0018 1.7049 12.3693 2.3416M22.0039 2.34125C22.0038 2.34119 22.0039 2.34131 22.0039 2.34125ZM22.0039 2.34125C22.6365 2.97767 23.1388 3.7336 23.4812 4.56521C23.8237 5.39697 24 6.28848 24 7.18882C24 8.08916 23.8237 8.98067 23.4812 9.81243C23.1387 10.6441 22.6368 11.3998 22.0041 12.0362M22.0041 12.0362C22.0041 12.0362 22.004 12.0363 22.0041 12.0362ZM22.0041 12.0362L12.7407 21.3575C12.3315 21.7693 11.668 21.7693 11.2587 21.3575L1.99538 12.0362C0.71776 10.7506 0 9.00695 0 7.18882C0 5.3707 0.71776 3.62704 1.99538 2.34143C3.273 1.05582 5.00582 0.333572 6.81265 0.333572C8.61948 0.333572 10.3523 1.05582 11.6299 2.34143L11.9997 2.71353L12.3693 2.3416M12.3693 2.3416C12.3693 2.34166 12.3694 2.34154 12.3693 2.3416ZM15.3817 2.8033C15.954 2.5647 16.5674 2.4419 17.1868 2.4419C17.8062 2.4419 18.4196 2.5647 18.9918 2.8033C19.5641 3.0419 20.0844 3.39196 20.5223 3.83281C20.9604 4.27346 21.3079 4.79664 21.5451 5.37247C21.7822 5.94831 21.9042 6.56551 21.9042 7.18882C21.9042 7.81213 21.7822 8.42933 21.5451 9.00517C21.3079 9.581 20.9602 10.1044 20.5221 10.545L11.9997 19.1207L3.47732 10.545C2.59274 9.65489 2.09578 8.44763 2.09578 7.18882C2.09578 5.93001 2.59274 4.72275 3.47732 3.83264C4.36191 2.94252 5.56166 2.44246 6.81265 2.44246C8.06364 2.44246 9.2634 2.94252 10.148 3.83264L11.2587 4.95035C11.668 5.36213 12.3315 5.36213 12.7407 4.95035L13.8516 3.83246C14.2895 3.39161 14.8095 3.0419 15.3817 2.8033Z" stroke="white" stroke-width="0.2" stroke-linecap="round" stroke-linejoin="round"/>
</svg>
