<svg width="24" height="24" viewBox="0 0 24 24" fill="none" xmlns="http://www.w3.org/2000/svg">
<path d="M8.99983 4H5C4.44772 4 4 4.44772 4 5V8.99983C4 9.55212 4.44772 9.99983 5 9.99983H8.99983C9.55212 9.99983 9.99983 9.55212 9.99983 8.99983V5C9.99983 4.44772 9.55212 4 8.99983 4Z" stroke="white" stroke-width="2" stroke-linecap="round" stroke-linejoin="round"/>
<path d="M18.9998 4H15C14.4477 4 14 4.44772 14 5V8.99983C14 9.55212 14.4477 9.99983 15 9.99983H18.9998C19.5521 9.99983 19.9998 9.55212 19.9998 8.99983V5C19.9998 4.44772 19.5521 4 18.9998 4Z" stroke="white" stroke-width="2" stroke-linecap="round" stroke-linejoin="round"/>
<path d="M8.99983 14H5C4.44772 14 4 14.4477 4 15V18.9998C4 19.5521 4.44772 19.9998 5 19.9998H8.99983C9.55212 19.9998 9.99983 19.5521 9.99983 18.9998V15C9.99983 14.4477 9.55212 14 8.99983 14Z" stroke="white" stroke-width="2" stroke-linecap="round" stroke-linejoin="round"/>
<path d="M18.9998 14H15C14.4477 14 14 14.4477 14 15V18.9998C14 19.5521 14.4477 19.9998 15 19.9998H18.9998C19.5521 19.9998 19.9998 19.5521 19.9998 18.9998V15C19.9998 14.4477 19.5521 14 18.9998 14Z" stroke="white" stroke-width="2" stroke-linecap="round" stroke-linejoin="round"/>
</svg>
