<svg width="19" height="20" viewBox="0 0 19 20" fill="none" xmlns="http://www.w3.org/2000/svg">
<g clip-path="url(#clip0_16_817)">
<path d="M13.8627 11.8262L13.8556 11.8856C12.1147 11.0179 11.9327 10.9023 11.7078 11.2396C11.5519 11.4731 11.0975 12.0028 10.9605 12.1595C10.822 12.3139 10.6842 12.3258 10.4491 12.2189C10.2116 12.1001 9.4492 11.8508 8.5467 11.0433C7.8437 10.4139 7.37187 9.64202 7.23254 9.40452C7.00058 9.00393 7.48587 8.94693 7.92762 8.11093C8.00679 7.94468 7.96641 7.81406 7.90783 7.6961C7.84845 7.57735 7.37583 6.4136 7.17791 5.94968C6.98791 5.48735 6.79237 5.54593 6.64591 5.54593C6.18991 5.50635 5.85662 5.51268 5.56291 5.81827C4.28516 7.22268 4.60737 8.67143 5.70066 10.212C7.84925 13.024 8.994 13.5418 11.0872 14.2606C11.6524 14.4403 12.1678 14.415 12.5755 14.3564C13.0299 14.2844 13.9744 13.7856 14.1715 13.2275C14.3734 12.6694 14.3734 12.2062 14.314 12.0994C14.2554 11.9925 14.1002 11.9331 13.8627 11.8262Z" fill="#6EA527"/>
<path d="M16.245 3.22934C10.1579 -2.65512 0.0839167 1.61275 0.0799583 9.91417C0.0799583 11.5735 0.514583 13.1917 1.34267 14.6206L0 19.4989L5.01521 18.191C11.2733 21.5715 18.9968 17.0827 19 9.91892C19 7.40459 18.0183 5.03829 16.2331 3.26021L16.245 3.22934ZM17.4183 9.89279C17.4135 15.9356 10.7801 19.7095 5.53375 16.6251L5.24875 16.4557L2.28 17.2276L3.07563 14.342L2.88642 14.0451C-0.378417 8.84779 3.3725 2.05529 9.557 2.05529C11.6581 2.05529 13.6301 2.87467 15.1153 4.35904C16.5997 5.83075 17.4183 7.80279 17.4183 9.89279V9.89279Z" fill="#6EA527"/>
</g>
<defs>
<clipPath id="clip0_16_817">
<rect width="19" height="19" fill="white" transform="translate(0 0.5)"/>
</clipPath>
</defs>
</svg>
