<svg width="12" height="16" viewBox="0 0 12 16" fill="none" xmlns="http://www.w3.org/2000/svg">
<path d="M5.91351 0C2.65278 0 0 2.59944 0 5.79457C0 9.75982 5.29202 15.581 5.51733 15.8269C5.72896 16.0579 6.09845 16.0575 6.3097 15.8269C6.53501 15.581 11.827 9.75982 11.827 5.79457C11.827 2.59944 9.17421 0 5.91351 0ZM5.91351 8.70998C4.27296 8.70998 2.93831 7.40213 2.93831 5.79457C2.93831 4.187 4.27299 2.87919 5.91351 2.87919C7.55404 2.87919 8.88869 4.18704 8.88869 5.7946C8.88869 7.40217 7.55404 8.70998 5.91351 8.70998Z" fill="#6EA527"/>
</svg>
