<svg width="1440" height="1252" viewBox="0 0 1440 1252" fill="none" xmlns="http://www.w3.org/2000/svg">
<path d="M1451 1237.01C1063 884.513 1312 1267.51 1291 1145.51C1270 1023.51 851.5 1347.01 809.5 1218.51C767.5 1090.01 1105.5 846.513 1033 1009.01C995.925 1092.11 1005.12 973.927 918 938.063C834.759 903.796 801.115 832.958 867.5 734.013C905.384 677.549 944.022 612.762 988 567.513C1101.74 450.485 1015 420.013 887.5 505.013C761.956 588.709 1030.38 247.013 936.5 122.013C874.649 39.6582 601.542 5.98806 503.5 3.01344C91.5 -9.48675 -6.32625 97.9484 160 89.0135C644 63.0133 297.5 -26.9866 119.5 15.5135C66.4067 28.1903 -53 77.0132 -53 77.0132" stroke="#EDDBBA" stroke-width="4"/>
</svg>
